HIERARCHY
ROOT Hips
{
	OFFSET -0.638470 1.435053 0.000000
	CHANNELS 6 Xposition Yposition Zposition Xrotation Yrotation Zrotation
	JOINT Bip01_Pelvis
	{
		OFFSET 0.000000 0.000000 0.000000
		CHANNELS 6 Xposition Yposition Zposition Xrotation Yrotation Zrotation
		JOINT BN_Tail_01
		{
			OFFSET -0.251828 0.158051 0.002214
			CHANNELS 6 Xposition Yposition Zposition Xrotation Yrotation Zrotation
			JOINT BN_Tail_02
			{
				OFFSET -0.055230 -0.292895 0.030037
				CHANNELS 6 Xposition Yposition Zposition Xrotation Yrotation Zrotation
				JOINT BN_Tail_03
				{
					OFFSET -0.063480 -0.295807 -0.008990
					CHANNELS 6 Xposition Yposition Zposition Xrotation Yrotation Zrotation
					JOINT BN_Tail_04
					{
						OFFSET -0.122834 -0.229411 -0.050920
						CHANNELS 6 Xposition Yposition Zposition Xrotation Yrotation Zrotation
						End Site
						{
							OFFSET 0.147010 -0.218160 -0.033241
						}
					}
				}
			}
		}
		JOINT Bip01_Spine
		{
			OFFSET 0.231004 0.014426 0.000025
			CHANNELS 6 Xposition Yposition Zposition Xrotation Yrotation Zrotation
			JOINT Bip01_R_Thigh
			{
				OFFSET -0.228734 -0.014440 0.259823
				CHANNELS 6 Xposition Yposition Zposition Xrotation Yrotation Zrotation
				JOINT Bip01_R_Calf
				{
					OFFSET 0.149708 -0.688047 0.023072
					CHANNELS 6 Xposition Yposition Zposition Xrotation Yrotation Zrotation
					JOINT Bip01_R_Foot
					{
						OFFSET -0.223912 -0.555148 -0.049854
						CHANNELS 6 Xposition Yposition Zposition Xrotation Yrotation Zrotation
						JOINT Bip01_R_Toe0
						{
							OFFSET 0.205156 -0.190076 0.052833
							CHANNELS 6 Xposition Yposition Zposition Xrotation Yrotation Zrotation
							End Site
							{
								OFFSET 0.000018 0.284621 0.000147
							}
						}
					}
				}
			}
			JOINT Bip01_L_Thigh
			{
				OFFSET -0.233275 -0.014388 -0.259860
				CHANNELS 6 Xposition Yposition Zposition Xrotation Yrotation Zrotation
				JOINT Bip01_L_Calf
				{
					OFFSET 0.103196 -0.696667 -0.018948
					CHANNELS 6 Xposition Yposition Zposition Xrotation Yrotation Zrotation
					JOINT Bip01_L_Foot
					{
						OFFSET -0.245133 -0.546127 0.049665
						CHANNELS 6 Xposition Yposition Zposition Xrotation Yrotation Zrotation
						JOINT Bip01_L_Toe0
						{
							OFFSET 0.205140 -0.190098 -0.052814
							CHANNELS 6 Xposition Yposition Zposition Xrotation Yrotation Zrotation
							End Site
							{
								OFFSET 0.000006 0.284621 -0.000316
							}
						}
					}
				}
			}
			JOINT Bip01_Spine1
			{
				OFFSET 0.419549 0.010961 -0.013086
				CHANNELS 6 Xposition Yposition Zposition Xrotation Yrotation Zrotation
				JOINT Bip01_Spine2
				{
					OFFSET 0.408348 0.028529 -0.012770
					CHANNELS 6 Xposition Yposition Zposition Xrotation Yrotation Zrotation
					JOINT Bip01_Neck
					{
						OFFSET 0.338811 0.285814 0.004795
						CHANNELS 6 Xposition Yposition Zposition Xrotation Yrotation Zrotation
						JOINT Bip01_Head
						{
							OFFSET 0.358737 0.023694 0.007412
							CHANNELS 6 Xposition Yposition Zposition Xrotation Yrotation Zrotation
							JOINT BN_Eyebrow_L
							{
								OFFSET 0.459204 -0.112929 -0.207704
								CHANNELS 6 Xposition Yposition Zposition Xrotation Yrotation Zrotation
								End Site
								{
									OFFSET 0.133228 0.345340 0.007912
								}
							}
							JOINT BN_Eyebrow_R
							{
								OFFSET 0.447722 -0.112095 0.231821
								CHANNELS 6 Xposition Yposition Zposition Xrotation Yrotation Zrotation
								End Site
								{
									OFFSET 0.133493 0.345321 -0.002241
								}
							}
							JOINT BN_Ear_L_01
							{
								OFFSET 0.142448 0.104846 -0.170427
								CHANNELS 6 Xposition Yposition Zposition Xrotation Yrotation Zrotation
								JOINT BN_Ear_L_02
								{
									OFFSET -0.083689 -0.238753 -0.034438
									CHANNELS 6 Xposition Yposition Zposition Xrotation Yrotation Zrotation
									End Site
									{
										OFFSET -0.126318 0.144229 -0.168625
									}
								}
							}
							JOINT BN_Mouth_01
							{
								OFFSET -0.020845 -0.180431 -0.000206
								CHANNELS 6 Xposition Yposition Zposition Xrotation Yrotation Zrotation
								End Site
								{
									OFFSET 0.245560 0.277011 0.006079
								}
							}
							JOINT BN_Ear_R_01
							{
								OFFSET 0.133367 0.105498 0.177239
								CHANNELS 6 Xposition Yposition Zposition Xrotation Yrotation Zrotation
								JOINT BN_Ear_R_02
								{
									OFFSET -0.074872 -0.240788 0.040107
									CHANNELS 6 Xposition Yposition Zposition Xrotation Yrotation Zrotation
									End Site
									{
										OFFSET 0.093503 -0.082871 -0.222672
									}
								}
							}
							JOINT BN_Nose_01
							{
								OFFSET 0.471273 -0.208616 0.012699
								CHANNELS 6 Xposition Yposition Zposition Xrotation Yrotation Zrotation
								JOINT BN_Nose_02
								{
									OFFSET 0.076379 -0.339505 0.013347
									CHANNELS 6 Xposition Yposition Zposition Xrotation Yrotation Zrotation
									JOINT BN_Nose_03
									{
										OFFSET -0.035108 -0.320643 -0.000054
										CHANNELS 6 Xposition Yposition Zposition Xrotation Yrotation Zrotation
										JOINT BN_Nose_04
										{
											OFFSET -0.120659 -0.262204 -0.017643
											CHANNELS 6 Xposition Yposition Zposition Xrotation Yrotation Zrotation
											JOINT BN_Nose_05
											{
												OFFSET -0.238823 -0.158587 -0.019394
												CHANNELS 6 Xposition Yposition Zposition Xrotation Yrotation Zrotation
												JOINT BN_Nose_06
												{
													OFFSET -0.151660 0.098345 -0.011572
													CHANNELS 6 Xposition Yposition Zposition Xrotation Yrotation Zrotation
													End Site
													{
														OFFSET -0.170805 -0.059338 -0.010550
													}
												}
											}
										}
									}
								}
							}
						}
						JOINT Bip01_R_Clavicle
						{
							OFFSET -0.389642 -0.069071 0.270815
							CHANNELS 6 Xposition Yposition Zposition Xrotation Yrotation Zrotation
							JOINT Bip01_R_UpperArm
							{
								OFFSET 0.297928 -0.399194 0.055021
								CHANNELS 6 Xposition Yposition Zposition Xrotation Yrotation Zrotation
								JOINT Bip01_R_Forearm
								{
									OFFSET -0.175741 -0.570802 0.016792
									CHANNELS 6 Xposition Yposition Zposition Xrotation Yrotation Zrotation
									JOINT Bip01_R_Hand
									{
										OFFSET 0.111535 -0.507633 -0.007184
										CHANNELS 6 Xposition Yposition Zposition Xrotation Yrotation Zrotation
										End Site
										{
											OFFSET -0.022081 0.004104 -0.519306
										}
									}
								}
							}
						}
						JOINT Bip01_L_Clavicle
						{
							OFFSET -0.383456 -0.067190 -0.279962
							CHANNELS 6 Xposition Yposition Zposition Xrotation Yrotation Zrotation
							JOINT Bip01_L_UpperArm
							{
								OFFSET 0.318955 -0.382331 -0.056872
								CHANNELS 6 Xposition Yposition Zposition Xrotation Yrotation Zrotation
								JOINT Bip01_L_Forearm
								{
									OFFSET -0.115345 -0.586063 0.014382
									CHANNELS 6 Xposition Yposition Zposition Xrotation Yrotation Zrotation
									JOINT Bip01_L_Hand
									{
										OFFSET 0.091957 -0.510185 0.037926
										CHANNELS 6 Xposition Yposition Zposition Xrotation Yrotation Zrotation
										End Site
										{
											OFFSET -0.022870 -0.010497 0.519182
										}
									}
								}
							}
						}
					}
				}
			}
		}
	}
}
MOTION
Frames: 4
Frame Time: 0.033333
-0.638470 1.435053 -0.000000 0.000000 0.000013 -0.000013 0.000000 0.000000 0.000000 0.000004 -0.000001 -0.000000 -0.251828 0.158051 0.002214 0.000003 -0.000003 -0.000012 -0.055230 -0.292895 0.030037 -0.000001 0.000000 0.000000 -0.063480 -0.295807 -0.008990 -0.000000 -0.000000 0.000002 -0.122834 -0.229411 -0.050920 0.000002 -0.000006 0.000002 0.231004 0.014426 0.000025 0.000000 -0.000000 0.000000 -0.228734 -0.014440 0.259823 0.000000 -0.000002 -0.000021 0.149708 -0.688047 0.023072 -0.000000 0.000001 -0.000005 -0.223912 -0.555148 -0.049854 -0.000001 -0.000003 0.000007 0.205156 -0.190076 0.052833 0.000001 0.000004 -0.000001 -0.233275 -0.014388 -0.259860 -0.000000 0.000003 -0.000001 0.103196 -0.696667 -0.018948 -0.000002 -0.000001 -0.000008 -0.245133 -0.546127 0.049665 -0.000000 -0.000002 0.000004 0.205140 -0.190098 -0.052814 0.000000 0.000004 0.000000 0.419549 0.010961 -0.013086 -0.000000 0.000000 -0.000000 0.408348 0.028529 -0.012770 -0.000000 0.000000 -0.000001 0.338811 0.285814 0.004795 -0.000000 -0.000000 -0.000002 0.358737 0.023694 0.007412 0.000000 0.000000 -0.000005 0.459204 -0.112929 -0.207704 0.000003 0.000003 -0.000000 0.447722 -0.112096 0.231821 -0.000001 -0.000006 -0.000006 0.142448 0.104846 -0.170427 -0.000009 0.000007 -0.000019 -0.083689 -0.238753 -0.034438 -0.000004 0.000000 -0.000003 -0.020845 -0.180431 -0.000206 0.000001 -0.000001 0.000003 0.133367 0.105497 0.177239 -0.000007 -0.000005 0.000005 -0.074872 -0.240788 0.040107 -0.000003 -0.000003 -0.000001 0.471273 -0.208616 0.012699 0.000003 -0.000011 0.000002 0.076379 -0.339505 0.013347 0.000000 -0.000000 -0.000002 -0.035108 -0.320643 -0.000054 0.000001 -0.000000 0.000001 -0.120658 -0.262204 -0.017643 -0.000003 -0.000001 -0.000014 -0.238823 -0.158587 -0.019394 0.000002 0.000001 0.000054 -0.151660 0.098345 -0.011572 0.000002 -0.000001 0.000024 -0.389642 -0.069071 0.270815 -0.000011 0.000016 0.000000 0.297928 -0.399194 0.055021 0.000003 0.000000 -0.000017 -0.175741 -0.570801 0.016792 -0.000001 0.000001 0.000001 0.111535 -0.507633 -0.007184 0.000000 0.000004 0.000000 -0.383456 -0.067190 -0.279962 -0.000001 -0.000002 0.000020 0.318955 -0.382331 -0.056872 0.000005 0.000017 -0.000017 -0.115345 -0.586063 0.014382 0.000001 0.000002 -0.000001 0.091957 -0.510185 0.037926 -0.000001 0.000000 0.000003 
-0.638470 1.434913 -0.000000 0.000000 0.000013 -0.000013 -0.000000 -0.000000 -0.000000 0.000229 -0.002388 -0.003009 -0.251828 0.158051 0.002214 0.000004 -0.000003 -0.000012 -0.055230 -0.292895 0.030037 -0.267555 0.049518 0.044631 -0.063480 -0.295808 -0.008990 -0.024196 0.011692 0.002084 -0.122834 -0.229411 -0.050920 0.501031 -0.744913 -0.110611 0.231011 0.014324 0.000075 -0.000815 -0.007367 -0.025497 -0.228651 -0.014565 0.259832 0.000567 0.000400 -0.002919 0.149708 -0.688046 0.023072 -0.000666 -0.000031 0.003347 -0.223912 -0.555148 -0.049854 -0.000104 -0.000002 0.000403 0.205156 -0.190076 0.052833 0.000001 0.000005 -0.000001 -0.233345 -0.014495 -0.259850 0.006793 -0.015091 0.032399 0.103196 -0.696667 -0.018948 0.000406 0.000004 0.002051 -0.245133 -0.546127 0.049665 0.000127 0.000011 0.000596 0.205140 -0.190099 -0.052814 0.000000 0.000005 0.000000 0.419549 0.010961 -0.013086 -0.000000 0.000000 -0.000000 0.408348 0.028529 -0.012770 -0.000830 -0.000794 0.076784 0.338811 0.285814 0.004795 0.013015 -0.054218 -0.036889 0.358737 0.023693 0.007412 -0.025770 0.119600 -0.090251 0.459204 -0.112929 -0.207704 0.038445 -0.018599 0.033627 0.447722 -0.112095 0.231821 -0.040155 0.018699 0.031511 0.142448 0.104846 -0.170427 0.167807 0.223351 0.103271 -0.083689 -0.238753 -0.034438 -0.169303 -0.339590 -0.001491 -0.020844 -0.180430 -0.000206 -0.004329 0.000153 0.174156 0.133368 0.105498 0.177239 -0.082287 -0.182596 0.025106 -0.074872 -0.240788 0.040107 -0.382223 -0.201484 -0.120936 0.471273 -0.208616 0.012699 -0.057035 0.057185 0.014355 0.076379 -0.339505 0.013347 -0.001112 0.000116 0.029869 -0.035108 -0.320643 -0.000054 -0.000004 -0.000008 0.000150 -0.120659 -0.262204 -0.017643 -0.000027 0.000010 0.000207 -0.238823 -0.158587 -0.019394 0.000268 -0.000116 -0.003270 -0.151660 0.098344 -0.011572 0.018893 -0.004176 -0.282787 -0.389292 -0.069360 0.271242 0.004457 0.054283 0.058438 0.297928 -0.399194 0.055021 -0.002459 -0.006538 -0.139474 -0.175741 -0.570801 0.016792 0.005430 0.000267 0.065758 0.111535 -0.507633 -0.007184 -0.019662 0.000412 -0.021894 -0.383713 -0.067435 -0.279550 -0.007226 0.034972 0.086964 0.318955 -0.382330 -0.056872 0.025531 0.007572 -0.168025 -0.115345 -0.586063 0.014382 0.000001 0.000002 0.000001 0.091957 -0.510185 0.037926 -0.032205 0.006552 0.135885 
-0.638470 1.434765 -0.000000 0.000000 0.000013 -0.000013 0.000000 0.000000 -0.000000 0.007124 0.032705 0.066060 -0.251828 0.158051 0.002214 0.000004 -0.000003 -0.000012 -0.055230 -0.292895 0.030037 -0.573851 0.104715 0.143555 -0.063480 -0.295807 -0.008990 -0.178337 0.093458 0.016865 -0.122834 -0.229411 -0.050920 0.990671 -1.475684 -0.212695 0.231028 0.014040 0.000204 -0.005069 -0.052757 -0.157834 -0.228465 -0.014766 0.259858 -0.017508 -0.008346 0.089081 0.149708 -0.688047 0.023072 0.013798 0.000666 -0.069470 -0.223912 -0.555148 -0.049854 -0.010592 -0.000028 0.041055 0.205156 -0.190076 0.052833 0.000001 0.000004 -0.000001 -0.233507 -0.014660 -0.259821 0.019731 -0.011796 0.098187 0.103196 -0.696667 -0.018948 -0.015911 -0.000158 -0.080451 -0.245133 -0.546127 0.049665 0.013621 0.000733 0.058450 0.205140 -0.190099 -0.052814 0.000000 0.000002 0.000000 0.419549 0.010961 -0.013086 -0.000000 0.000000 0.000000 0.408348 0.028528 -0.012770 -0.003146 0.016261 0.175587 0.338811 0.285814 0.004795 0.030557 -0.135952 0.005106 0.358737 0.023694 0.007412 -0.033269 0.310448 -0.325714 0.459204 -0.112929 -0.207704 0.094015 -0.045495 0.082297 0.447722 -0.112096 0.231821 -0.098204 0.045727 0.077128 0.142448 0.104846 -0.170427 0.325889 0.437796 0.190625 -0.083689 -0.238753 -0.034438 -0.337237 -0.676486 -0.003984 -0.020845 -0.180431 -0.000206 -0.008770 0.000308 0.352739 0.133367 0.105497 0.177239 -0.166691 -0.366913 0.066452 -0.074872 -0.240788 0.040107 -0.752465 -0.395640 -0.239233 0.471273 -0.208616 0.012699 -0.080206 0.080266 0.062533 0.076379 -0.339505 0.013347 -0.003561 0.000371 0.095562 -0.035108 -0.320643 -0.000054 -0.000428 -0.000800 0.014835 -0.120658 -0.262204 -0.017643 -0.002477 0.001044 0.020886 -0.238823 -0.158587 -0.019394 -0.006099 0.002344 0.079588 -0.151660 0.098345 -0.011572 0.037284 -0.008334 -0.558395 -0.388978 -0.069159 0.271735 0.008046 0.139380 0.065696 0.297928 -0.399194 0.055021 0.013453 -0.018034 -0.313971 -0.175741 -0.570801 0.016792 0.014890 0.000744 0.180332 0.111535 -0.507633 -0.007184 -0.026424 0.000572 -0.029414 -0.384136 -0.067102 -0.279055 -0.007215 0.108856 0.173674 0.318955 -0.382331 -0.056872 0.053373 0.013270 -0.363569 -0.115345 -0.586063 0.014382 0.000001 0.000001 -0.000001 0.091957 -0.510185 0.037926 -0.055654 0.011302 0.234904 
-0.638470 1.434532 -0.000000 0.000000 0.000013 -0.000013 -0.000000 -0.000000 -0.000000 0.011711 0.072241 0.156063 -0.251828 0.158051 0.002214 0.000003 -0.000003 -0.000012 -0.055230 -0.292895 0.030037 -0.920632 0.166120 0.290456 -0.063480 -0.295807 -0.008990 -0.395992 0.204284 0.036961 -0.122834 -0.229411 -0.050920 1.484947 -2.215912 -0.309645 0.231053 0.013631 0.000389 -0.010862 -0.114416 -0.338085 -0.228173 -0.015070 0.259917 -0.028800 0.015993 0.142740 0.149708 -0.688046 0.023072 0.029904 0.001420 -0.150551 -0.223912 -0.555148 -0.049854 -0.024379 -0.000068 0.094500 0.205156 -0.190076 0.052833 0.000001 0.000004 -0.000001 -0.233764 -0.014912 -0.259756 0.043615 -0.020273 0.217763 0.103196 -0.696667 -0.018948 -0.029150 -0.000274 -0.147349 -0.245133 -0.546127 0.049665 0.012639 0.000682 0.054253 0.205140 -0.190099 -0.052814 0.000000 0.000001 0.000000 0.419549 0.010961 -0.013086 0.000092 -0.000565 0.002478 0.408348 0.028529 -0.012770 -0.005831 0.042433 0.251798 0.338811 0.285813 0.004795 0.043749 -0.202835 0.094030 0.358737 0.023693 0.007412 -0.022759 0.546298 -0.671410 0.459204 -0.112929 -0.207704 0.169079 -0.081738 0.147979 0.447722 -0.112096 0.231821 -0.169693 0.078955 0.133279 0.142448 0.104846 -0.170427 0.470567 0.645293 0.267160 -0.083689 -0.238753 -0.034438 -0.583029 -1.247021 0.011090 -0.020845 -0.180431 -0.000206 -0.013444 0.000460 0.540093 0.133367 0.105497 0.177239 -0.249186 -0.548682 0.118250 -0.074872 -0.240788 0.040107 -1.381532 -0.703683 -0.438382 0.471273 -0.208616 0.012699 0.004943 0.000336 0.127998 0.076379 -0.339505 0.013347 -0.009279 0.000953 0.248945 -0.035108 -0.320643 -0.000054 -0.001132 -0.002114 0.039170 -0.120658 -0.262204 -0.017643 -0.007637 0.003067 0.096396 -0.238823 -0.158587 -0.019394 -0.014468 0.003797 0.208772 -0.151660 0.098345 -0.011572 0.055841 -0.012624 -0.836792 -0.388695 -0.068518 0.272307 0.013451 0.239552 0.009447 0.297928 -0.399193 0.055021 0.047735 -0.035405 -0.494064 -0.175741 -0.570802 0.016792 0.027304 0.001400 0.330679 0.111535 -0.507633 -0.007184 -0.074108 0.001676 -0.082442 -0.384679 -0.066299 -0.278489 0.007290 0.175875 0.214027 0.318955 -0.382330 -0.056872 0.081511 0.018242 -0.593834 -0.115345 -0.586063 0.014382 0.000309 -0.000117 -0.002341 0.091957 -0.510185 0.037926 -0.087606 0.017701 0.369680 
